Sprint_07200001_forces_filt15Hz.mot
version=1
nRows=38
nColumns=19
inDegrees=yes
endheader
time	R_ground_force_vx	R_ground_force_vy	R_ground_force_vz	R_ground_force_px	R_ground_force_py	R_ground_force_pz	R_ground_torque_x	R_ground_torque_y	R_ground_torque_z	L_ground_force_vx	L_ground_force_vy	L_ground_force_vz	L_ground_force_px	L_ground_force_py	L_ground_force_pz	L_ground_torque_x	L_ground_torque_y	L_ground_torque_z	
0.000000	  0.000000	  0.000000	  0.000000	  0.175982	  0.000000	 -0.302023	  0.000000	  0.000000	  0.000000	  0.000000	  0.000000	  0.000000	  1.204600	  0.000000	 -0.365568	  0.000000	  0.000000	  0.000000
0.000500	  0.000000	  0.000000	  0.000000	  0.177107	 -0.000000	 -0.301930	  0.000000	  0.000000	  0.000000	  0.000000	  0.000000	  0.000000	  1.205115	 -0.000000	 -0.365139	  0.000000	  0.000000	  0.000000
0.001000	  0.000000	  0.000000	  0.000000	  0.178233	 -0.000000	 -0.301838	  0.000000	  0.000000	  0.000000	  0.000000	  0.000000	  0.000000	  1.205630	 -0.000000	 -0.364711	  0.000000	  0.000000	  0.000000
0.001500	  0.000000	  0.000000	  0.000000	  0.179358	 -0.000000	 -0.301746	  0.000000	  0.000000	  0.000000	  0.000000	  0.000000	  0.000000	  1.206146	 -0.000000	 -0.364283	  0.000000	  0.000000	  0.000000
0.002000	  0.000000	  0.000000	  0.000000	  0.180484	 -0.000000	 -0.301653	  0.000000	  0.000000	  0.000000	  0.000000	  0.000000	  0.000000	  1.206661	 -0.000000	 -0.363854	  0.000000	  0.000000	  0.000000
0.002500	  0.000000	  0.000000	  0.000000	  0.181609	  0.000000	 -0.301561	  0.000000	  0.000000	  0.000000	  0.000000	  0.000000	  0.000000	  1.207176	  0.000000	 -0.363426	  0.000000	  0.000000	  0.000000
0.003000	  0.000000	  0.000000	  0.000000	  0.182735	  0.000000	 -0.301469	  0.000000	  0.000000	  0.000000	  0.000000	  0.000000	  0.000000	  1.207691	  0.000000	 -0.362998	  0.000000	  0.000000	  0.000000
0.003500	  0.000000	  0.000000	  0.000000	  0.183860	  0.000000	 -0.301376	  0.000000	  0.000000	  0.000000	  0.000000	  0.000000	  0.000000	  1.208206	  0.000000	 -0.362569	  0.000000	  0.000000	  0.000000
0.004000	  0.000000	  0.000000	  0.000000	  0.184986	  0.000000	 -0.301284	  0.000000	  0.000000	  0.000000	  0.000000	  0.000000	  0.000000	  1.208721	  0.000000	 -0.362141	  0.000000	  0.000000	  0.000000
0.004500	  0.000000	  0.000000	  0.000000	  0.186112	  0.000000	 -0.301192	  0.000000	  0.000000	  0.000000	  0.000000	  0.000000	  0.000000	  1.209236	  0.000000	 -0.361713	  0.000000	  0.000000	  0.000000
0.005000	  0.000000	  0.000000	  0.000000	  0.187237	  0.000000	 -0.301099	  0.000000	  0.000000	  0.000000	  0.000000	  0.000000	  0.000000	  1.209752	  0.000000	 -0.361284	  0.000000	  0.000000	  0.000000
0.005500	  0.000000	  0.000000	  0.000000	  0.188553	  0.000000	 -0.300998	  0.000000	  0.000000	  0.000000	  0.000000	  0.000000	  0.000000	  1.209859	  0.000000	 -0.360717	  0.000000	  0.000000	  0.000000
0.006000	  0.000000	  0.000000	  0.000000	  0.189870	  0.000000	 -0.300896	  0.000000	  0.000000	  0.000000	  0.000000	  0.000000	  0.000000	  1.209966	  0.000000	 -0.360150	  0.000000	  0.000000	  0.000000
0.006500	  0.000000	  0.000000	  0.000000	  0.191186	  0.000000	 -0.300794	  0.000000	  0.000000	  0.000000	  0.000000	  0.000000	  0.000000	  1.210074	  0.000000	 -0.359583	  0.000000	  0.000000	  0.000000
0.007000	  0.000000	  0.000000	  0.000000	  0.192502	  0.000000	 -0.300693	  0.000000	  0.000000	  0.000000	  0.000000	  0.000000	  0.000000	  1.210181	  0.000000	 -0.359016	  0.000000	  0.000000	  0.000000
0.007500	  0.000000	  0.000000	  0.000000	  0.193819	  0.000000	 -0.300591	  0.000000	  0.000000	  0.000000	  0.000000	  0.000000	  0.000000	  1.210288	  0.000000	 -0.358449	  0.000000	  0.000000	  0.000000
0.008000	  0.000000	  0.000000	  0.000000	  0.195135	  0.000000	 -0.300489	  0.000000	  0.000000	  0.000000	  0.000000	  0.000000	  0.000000	  1.210396	  0.000000	 -0.357882	  0.000000	  0.000000	  0.000000
0.008500	  0.000000	  0.000000	  0.000000	  0.196451	  0.000000	 -0.300388	  0.000000	  0.000000	  0.000000	  0.000000	  0.000000	  0.000000	  1.210503	  0.000000	 -0.357315	  0.000000	  0.000000	  0.000000
0.009000	  0.000000	  0.000000	  0.000000	  0.197767	  0.000000	 -0.300286	  0.000000	  0.000000	  0.000000	  0.000000	  0.000000	  0.000000	  1.210610	  0.000000	 -0.356748	  0.000000	  0.000000	  0.000000
0.009500	  0.000000	  0.000000	  0.000000	  0.199084	  0.000000	 -0.300184	  0.000000	  0.000000	  0.000000	  0.000000	  0.000000	  0.000000	  1.210718	  0.000000	 -0.356181	  0.000000	  0.000000	  0.000000
0.010000	  0.000000	  0.000000	  0.000000	  0.200400	  0.000000	 -0.300083	  0.000000	  0.000000	  0.000000	  0.000000	  0.000000	  0.000000	  1.210825	  0.000000	 -0.355614	  0.000000	  0.000000	  0.000000
0.010500	  0.000000	  0.000000	  0.000000	  0.201844	  0.000000	 -0.299963	  0.000000	  0.000000	  0.000000	  0.000000	  0.000000	  0.000000	  1.210557	  0.000000	 -0.355052	  0.000000	  0.000000	  0.000000
0.011000	  0.000000	  0.000000	  0.000000	  0.203287	  0.000000	 -0.299843	  0.000000	  0.000000	  0.000000	  0.000000	  0.000000	  0.000000	  1.210289	  0.000000	 -0.354489	  0.000000	  0.000000	  0.000000
0.011500	  0.000000	  0.000000	  0.000000	  0.204731	  0.000000	 -0.299723	  0.000000	  0.000000	  0.000000	  0.000000	  0.000000	  0.000000	  1.210021	  0.000000	 -0.353927	  0.000000	  0.000000	  0.000000
0.012000	  0.000000	  0.000000	  0.000000	  0.206174	  0.000000	 -0.299603	  0.000000	  0.000000	  0.000000	  0.000000	  0.000000	  0.000000	  1.209753	  0.000000	 -0.353364	  0.000000	  0.000000	  0.000000
0.012500	  0.000000	  0.000000	  0.000000	  0.207618	  0.000000	 -0.299483	  0.000000	  0.000000	  0.000000	  0.000000	  0.000000	  0.000000	  1.209485	  0.000000	 -0.352802	  0.000000	  0.000000	  0.000000
0.013000	  0.000000	  0.000000	  0.000000	  0.209061	  0.000000	 -0.299363	  0.000000	  0.000000	  0.000000	  0.000000	  0.000000	  0.000000	  1.209217	  0.000000	 -0.352240	  0.000000	  0.000000	  0.000000
0.013500	  0.000000	  0.000000	  0.000000	  0.210505	  0.000000	 -0.299243	  0.000000	  0.000000	  0.000000	  0.000000	  0.000000	  0.000000	  1.208949	  0.000000	 -0.351677	  0.000000	  0.000000	  0.000000
0.014000	  0.000000	  0.000000	  0.000000	  0.211949	  0.000000	 -0.299123	  0.000000	  0.000000	  0.000000	  0.000000	  0.000000	  0.000000	  1.208681	  0.000000	 -0.351115	  0.000000	  0.000000	  0.000000
0.014500	  0.000000	  0.000000	  0.000000	  0.213392	  0.000000	 -0.299003	  0.000000	  0.000000	  0.000000	  0.000000	  0.000000	  0.000000	  1.208413	  0.000000	 -0.350553	  0.000000	  0.000000	  0.000000
0.015000	  0.000000	  0.000000	  0.000000	  0.214836	  0.000000	 -0.298883	  0.000000	  0.000000	  0.000000	  0.000000	  0.000000	  0.000000	  1.208145	  0.000000	 -0.349990	  0.000000	  0.000000	  0.000000
0.015500	  0.000000	  0.000000	  0.000000	  0.216376	  0.000000	 -0.298707	  0.000000	  0.000000	  0.000000	  0.000000	  0.000000	  0.000000	  1.207553	  0.000000	 -0.349414	  0.000000	  0.000000	  0.000000
0.016000	  0.000000	  0.000000	  0.000000	  0.217917	  0.000000	 -0.298530	  0.000000	  0.000000	  0.000000	  0.000000	  0.000000	  0.000000	  1.206961	  0.000000	 -0.348838	  0.000000	  0.000000	  0.000000
0.016500	  0.000000	  0.000000	  0.000000	  0.219457	  0.000000	 -0.298354	  0.000000	  0.000000	  0.000000	  0.000000	  0.000000	  0.000000	  1.206368	  0.000000	 -0.348261	  0.000000	  0.000000	  0.000000
0.017000	  0.000000	  0.000000	  0.000000	  0.220997	  0.000000	 -0.298178	  0.000000	  0.000000	  0.000000	  0.000000	  0.000000	  0.000000	  1.205776	  0.000000	 -0.347685	  0.000000	  0.000000	  0.000000
0.017500	  0.000000	  0.000000	  0.000000	  0.222538	  0.000000	 -0.298001	  0.000000	  0.000000	  0.000000	  0.000000	  0.000000	  0.000000	  1.205184	  0.000000	 -0.347109	  0.000000	  0.000000	  0.000000
0.018000	  0.000000	  0.000000	  0.000000	  0.224078	  0.000000	 -0.297825	  0.000000	  0.000000	  0.000000	  0.000000	  0.000000	  0.000000	  1.204591	  0.000000	 -0.346532	  0.000000	  0.000000	  0.000000
0.018500	  0.000000	  0.000000	  0.000000	  0.225618	  0.000000	 -0.297649	  0.000000	  0.000000	  0.000000	  0.000000	  0.000000	  0.000000	  1.203999	  0.000000	 -0.345956	  0.000000	  0.000000	  0.000000
